<svg width="43" height="43" viewBox="0 0 43 43" fill="none" xmlns="http://www.w3.org/2000/svg">
<path d="M42.2602 21.1408C42.2602 9.46778 32.7952 0.0107422 21.1301 0.0107422C9.45703 0.0107422 0 9.46778 0 21.1408C0 31.6847 7.72437 40.4273 17.8285 42.0107V27.2501H12.4628V21.1421H17.8285V16.4843C17.8285 11.1899 20.9782 8.266 25.8064 8.266C28.1189 8.266 30.5396 8.67804 30.5396 8.67804V13.8774H27.8706C25.2504 13.8774 24.4317 15.5083 24.4317 17.1789V21.1408H30.2913L29.3497 27.2487H24.4317V42.0094C34.5279 40.426 42.2602 31.6834 42.2602 21.1395V21.1408Z" fill="white"/>
</svg>
