<svg width="100" height="100" viewBox="0 0 100 100" fill="none" xmlns="http://www.w3.org/2000/svg">
<path d="M49.9999 100C77.6141 100 99.9998 77.6143 99.9998 50.0001C99.9998 22.3859 77.6141 0 49.9999 0C22.3857 0 0 22.3859 0 50.0001C0 77.6143 22.3857 100 49.9999 100Z" fill="#2CB9E9"/>
<path d="M72.6742 27.8551C72.5711 27.6206 72.3835 27.4331 72.1585 27.3393C72.0366 27.2831 60.0339 22.2382 50.1599 32.1029C48.2751 33.9877 46.4559 36.21 44.7868 38.5543L42.5082 38.0292C39.0668 37.2321 35.5223 38.2449 33.0186 40.7392L26.8016 46.9655C25.1512 48.6159 26.2108 51.4196 28.5082 51.5978L37.2664 52.3011C36.8819 53.3232 36.5537 54.3265 36.3662 54.9923C36.1974 55.5831 36.2255 56.1926 36.4037 56.7552C34.819 57.1865 33.3749 57.9742 32.5591 58.79C30.7587 60.581 29.1552 68.4297 28.8552 69.9862C28.7239 70.7364 29.3897 71.3084 30.0273 71.1584C31.5839 70.8489 39.4325 69.2455 41.2235 67.4544C42.0768 66.6011 42.8458 65.1383 43.2677 63.6098C43.8679 63.7974 44.4774 63.7974 45.0306 63.638H45.04C45.7058 63.4504 46.681 63.141 47.7218 62.7378L48.4251 71.496C48.6033 73.7933 51.4164 74.8436 53.0574 73.2026L59.2838 66.9762C61.7781 64.4819 62.8002 60.928 61.9937 57.4866L61.4686 55.208C63.8129 53.5389 66.0353 51.7197 67.9201 49.8349C77.7847 39.9796 72.7305 27.977 72.6742 27.8551ZM28.2269 48.3815L34.4439 42.1551C36.46 40.139 39.3106 39.3326 42.0581 39.9796L43.5678 40.3266C41.3267 43.6929 39.4325 47.2187 38.0634 50.3507L28.6676 49.6005C28.0581 49.5442 27.7956 48.8034 28.2269 48.3815ZM39.8076 66.0479C38.9355 66.9199 34.6127 68.1296 31.1244 68.8985C31.884 65.4009 33.0936 61.0874 33.975 60.2153C34.7346 59.4464 36.2162 58.7806 37.6602 58.5181L41.5048 62.3627C41.4955 62.4002 41.4955 62.4377 41.4861 62.4846C41.2048 63.863 40.5202 65.3352 39.8076 66.0479ZM43.4084 61.425L38.5886 56.6052C38.3073 56.3239 38.1947 55.9019 38.2979 55.5268C38.3823 55.2361 38.5417 54.6922 38.748 54.0827L45.9308 61.2656C45.4995 61.4156 44.9275 61.5938 44.4867 61.7157C44.1117 61.8282 43.6991 61.7157 43.4084 61.425ZM60.0339 57.9555C60.6716 60.7217 59.8651 63.563 57.8585 65.5696L51.6321 71.796C51.2007 72.2274 50.4693 71.9554 50.4131 71.3553L49.6629 61.9595C52.7948 60.5998 56.3206 58.6962 59.687 56.4551L60.0339 57.9555ZM47.9844 60.4873L39.5169 52.0198C41.9081 46.1779 46.4747 38.6106 51.5664 33.5188C57.3802 27.705 65.0225 26.833 70.977 29.0272C71.6803 30.9964 74.4746 40.4578 66.4854 48.4471C61.3936 53.5389 53.8263 58.1055 47.9844 60.4873Z" fill="white" stroke="white" stroke-width="0.4"/>
<path d="M55.3182 34.9442C52.627 37.6354 52.627 41.9958 55.3182 44.6964C58.0094 47.3876 62.3698 47.3876 65.0704 44.6964C67.7616 42.0051 67.7616 37.6354 65.0704 34.9442C62.3698 32.253 58.0094 32.253 55.3182 34.9442ZM63.6544 43.2804C61.7415 45.1933 58.6471 45.1933 56.7342 43.2804C54.8212 41.3675 54.8212 38.2731 56.7342 36.3601C58.6471 34.4472 61.7415 34.4472 63.6544 36.3601C65.558 38.2731 65.558 41.3769 63.6544 43.2804Z" fill="white" stroke="white" stroke-width="0.4"/>
</svg>
