<svg width="100" height="100" viewBox="0 0 100 100" fill="none" xmlns="http://www.w3.org/2000/svg">
<path d="M49.9999 100C77.6141 100 99.9998 77.6143 99.9998 50.0001C99.9998 22.3859 77.6141 0 49.9999 0C22.3857 0 0 22.3859 0 50.0001C0 77.6143 22.3857 100 49.9999 100Z" fill="#15C131"/>
<g clip-path="url(#clip0_29_3696)">
<path d="M70.7695 32.4703L51.3609 24.3758C50.5687 24.0305 49.6547 24.0305 48.8523 24.3758L29.4539 32.4602C28.2453 32.968 27.4531 34.136 27.4531 35.4461V53.3922C27.4531 65.8742 37.6195 76.0203 50.1016 76.0203C62.5836 76.0203 72.75 65.8641 72.75 53.3922V35.4461C72.75 34.1461 71.968 32.9781 70.7695 32.4703ZM68.6875 53.4024C68.6875 63.6399 60.3391 71.968 50.1016 71.968C39.8641 71.968 31.5156 63.6399 31.5156 53.4024V36.0047L50.1016 28.2555L68.6875 36.0047V53.4024Z" fill="white"/>
<path d="M42.5047 48.4766C41.8039 47.6032 40.5242 47.461 39.6508 48.1618C38.7773 48.8626 38.6352 50.1422 39.3359 51.0157L43.8859 56.693C43.8961 56.7032 43.9062 56.7133 43.9062 56.7235C43.9164 56.7438 43.9367 56.754 43.9469 56.7743C43.957 56.7844 43.9672 56.8047 43.9875 56.8149L44.0383 56.8657C44.0484 56.8758 44.0687 56.886 44.0789 56.9063L44.1297 56.9571L44.1703 56.9977C44.1906 57.0079 44.2008 57.0282 44.2211 57.0383C44.2516 57.0587 44.282 57.0891 44.3125 57.1094C44.3227 57.1094 44.3227 57.1196 44.3328 57.1196C44.3633 57.1399 44.3937 57.1602 44.4141 57.1704C44.4242 57.1805 44.4344 57.1805 44.4445 57.1907C44.475 57.2008 44.4953 57.2212 44.5258 57.2313C44.5359 57.2415 44.5461 57.2415 44.5562 57.2516C44.5766 57.2618 44.607 57.2719 44.6273 57.2922C44.6375 57.3024 44.6476 57.3024 44.6578 57.3126C44.6781 57.3227 44.7086 57.3329 44.7289 57.343C44.7391 57.343 44.7492 57.3532 44.7695 57.3532C44.7898 57.3633 44.8203 57.3735 44.8406 57.3735C44.8508 57.3735 44.8711 57.3837 44.8812 57.3837C44.9016 57.3938 44.932 57.3938 44.9523 57.404C44.9625 57.404 44.9828 57.4141 44.993 57.4141C45.0133 57.4243 45.0437 57.4243 45.0641 57.4344C45.0742 57.4344 45.0945 57.4446 45.1047 57.4446C45.125 57.4446 45.1555 57.4547 45.1758 57.4547C45.1961 57.4547 45.2062 57.4547 45.2266 57.4649C45.2469 57.4649 45.2672 57.4649 45.2977 57.4751H45.4602C45.5109 57.4751 45.5617 57.4751 45.6227 57.4649H45.6633C45.7039 57.4649 45.7445 57.4547 45.7852 57.4547C45.8055 57.4547 45.8156 57.4446 45.8359 57.4446C45.8664 57.4344 45.907 57.4344 45.9375 57.4243C45.9578 57.4243 45.9781 57.4141 45.9984 57.404L46.0898 57.3735C46.1102 57.3633 46.1305 57.3633 46.1508 57.3532L46.2422 57.3227L46.3031 57.2922C46.3336 57.2821 46.3641 57.2618 46.3844 57.2516L46.4453 57.2212C46.4961 57.1907 46.5367 57.1704 46.5875 57.1399L61.2227 47.4102C62.157 46.7907 62.4109 45.5313 61.7914 44.5969C61.1719 43.6626 59.9125 43.4087 58.9781 44.0282L45.8867 52.7321L42.5047 48.4766Z" fill="white"/>
</g>
<defs>
<clipPath id="clip0_29_3696">
<rect width="52" height="52" fill="white" transform="translate(24 24)"/>
</clipPath>
</defs>
</svg>
