<svg width="56" height="56" viewBox="0 0 56 56" fill="none" xmlns="http://www.w3.org/2000/svg">
<circle cx="28" cy="28" r="28" fill="white"/>
<path d="M33.9499 15.1083H22.0499C20.9582 15.1573 19.9297 15.6344 19.1873 16.4362C18.4449 17.2381 18.0482 18.3001 18.0832 19.3923V39.9C18.0832 40.0721 18.128 40.2412 18.2132 40.3908C18.2984 40.5403 18.4211 40.6651 18.5691 40.7528C18.7199 40.8399 18.8909 40.8857 19.0649 40.8857C19.239 40.8857 19.41 40.8399 19.5608 40.7528L27.9999 36.0722L36.4389 40.7628C36.5871 40.8468 36.7545 40.8911 36.9249 40.8917C37.1028 40.8916 37.2775 40.8437 37.4306 40.7528C37.5786 40.6651 37.7013 40.5403 37.7865 40.3908C37.8717 40.2412 37.9165 40.0721 37.9165 39.9V19.3923C37.9515 18.3001 37.5548 17.2381 36.8124 16.4362C36.07 15.6344 35.0415 15.1573 33.9499 15.1083ZM35.9332 38.2142L28.4858 34.0789C28.335 33.9919 28.164 33.9461 27.9899 33.9461C27.8159 33.9461 27.6449 33.9919 27.4941 34.0789L20.0665 38.2142V19.3725C20.0386 18.8098 20.2295 18.2581 20.5992 17.833C20.9689 17.4078 21.4887 17.1422 22.0499 17.0917H33.9499C34.5146 17.1422 35.0375 17.4107 35.4077 17.8401C35.7779 18.2696 35.9664 18.8263 35.9332 19.3923V38.2142Z" fill="#717171"/>
</svg>
