<svg width="33" height="32" viewBox="0 0 33 32" fill="none" xmlns="http://www.w3.org/2000/svg">
<path d="M29.6351 12.2387C29.5513 11.9918 29.397 11.7749 29.1914 11.6148C28.9857 11.4546 28.7376 11.3582 28.4778 11.3374L20.8764 10.7334L17.5871 3.45202C17.4823 3.2175 17.312 3.01831 17.0965 2.8785C16.881 2.73868 16.6297 2.6642 16.3729 2.66406C16.116 2.66392 15.8646 2.73812 15.649 2.8777C15.4334 3.01728 15.2628 3.21628 15.1578 3.45069L11.8684 10.7334L4.2671 11.3374C4.0117 11.3576 3.76755 11.451 3.56384 11.6063C3.36013 11.7617 3.20549 11.9724 3.11842 12.2134C3.03136 12.4543 3.01555 12.7153 3.07289 12.965C3.13023 13.2147 3.2583 13.4425 3.44176 13.6214L9.0591 19.0974L7.07243 27.7C7.01211 27.9604 7.03144 28.2329 7.12792 28.4822C7.22441 28.7315 7.39358 28.946 7.6135 29.0979C7.83342 29.2499 8.09392 29.3322 8.36121 29.3342C8.6285 29.3363 8.89022 29.2579 9.11243 29.1094L16.3724 24.2694L23.6324 29.1094C23.8595 29.2601 24.1274 29.3378 24.3999 29.3318C24.6725 29.3258 24.9367 29.2365 25.157 29.0759C25.3772 28.9153 25.5431 28.6911 25.6321 28.4334C25.7212 28.1758 25.7292 27.897 25.6551 27.6347L23.2164 19.1014L29.2644 13.6587C29.6604 13.3014 29.8058 12.744 29.6351 12.2387Z" fill="#189AD3"/>
</svg>
