<svg width="17" height="16" viewBox="0 0 17 16" fill="none" xmlns="http://www.w3.org/2000/svg">
<mask id="mask0_67_2939" style="mask-type:alpha" maskUnits="userSpaceOnUse" x="0" y="1" width="17" height="14">
<path fill-rule="evenodd" clip-rule="evenodd" d="M15.9183 2.58762C16.2437 2.26218 16.2437 1.73454 15.9182 1.40911C15.5928 1.08368 15.0652 1.08368 14.7397 1.40912L2.74 13.4091C2.41457 13.7346 2.41457 14.2622 2.74002 14.5876C3.06546 14.9131 3.59309 14.9131 3.91853 14.5876L5.64476 12.8614C7.59201 13.6213 9.82054 13.6769 11.9211 12.8512C14.1392 11.9785 15.8992 10.2257 16.772 8.00028C16.2021 6.55956 15.2686 5.33026 14.1005 4.40543L15.9183 2.58762ZM12.0596 6.44637L10.9151 7.59094C10.9406 7.72492 10.9538 7.86192 10.9538 8.00028C10.9538 8.57893 10.7239 9.13389 10.3148 9.54306C9.90558 9.95223 9.35063 10.1821 8.77197 10.1821C8.63363 10.1821 8.49664 10.169 8.36268 10.1434L7.21813 11.2879C7.69943 11.5154 8.22945 11.6366 8.77197 11.6366C9.7364 11.6366 10.6613 11.2535 11.3433 10.5716C12.0252 9.88963 12.4083 8.9647 12.4083 8.00028C12.4083 7.45773 12.2871 6.92769 12.0596 6.44637ZM8.77197 2.54574C9.69895 2.54574 10.6009 2.6958 11.4506 2.97626L9.8876 4.53928C9.53038 4.42412 9.15428 4.36392 8.77197 4.36392C7.80755 4.36392 6.88263 4.74703 6.20068 5.42898C5.51872 6.11093 5.13561 7.03586 5.13561 8.00028C5.13561 8.38262 5.19582 8.75875 5.31099 9.11599L3.10535 11.3217C2.10441 10.4462 1.29245 9.32434 0.771973 8.00028C2.06652 4.72755 5.23743 2.54574 8.77197 2.54574ZM7.22919 6.4575C7.59807 6.08863 8.08542 5.86548 8.6018 5.8251L6.59679 7.83016C6.63716 7.31376 6.86031 6.82639 7.22919 6.4575Z" fill="#006FFD"/>
</mask>
<g mask="url(#mask0_67_2939)">
<rect x="0.771973" width="16" height="16" fill="#8F9098"/>
</g>
</svg>
