<svg width="16" height="17" viewBox="0 0 16 17" fill="none" xmlns="http://www.w3.org/2000/svg">
<mask id="mask0_44_1432" style="mask-type:alpha" maskUnits="userSpaceOnUse" x="0" y="1" width="16" height="15">
<path fill-rule="evenodd" clip-rule="evenodd" d="M15.1463 3.08762C15.4717 2.76218 15.4717 2.23454 15.1463 1.90911C14.8208 1.58368 14.2932 1.58368 13.9678 1.90912L1.96803 13.9091C1.6426 14.2346 1.6426 14.7622 1.96804 15.0876C2.29348 15.4131 2.82112 15.4131 3.14655 15.0876L4.87278 13.3614C6.82003 14.1213 9.04857 14.1769 11.1491 13.3512C13.3673 12.4785 15.1273 10.7257 16 8.50028C15.4301 7.05956 14.4966 5.83026 13.3285 4.90543L15.1463 3.08762ZM11.2876 6.94637L10.1431 8.09094C10.1687 8.22492 10.1818 8.36192 10.1818 8.50028C10.1818 9.07893 9.95195 9.63389 9.54278 10.0431C9.13361 10.4522 8.57865 10.6821 8 10.6821C7.86166 10.6821 7.72467 10.669 7.5907 10.6434L6.44616 11.7879C6.92746 12.0154 7.45748 12.1366 8 12.1366C8.96442 12.1366 9.88935 11.7535 10.5713 11.0716C11.2532 10.3896 11.6364 9.4647 11.6364 8.50028C11.6364 7.95773 11.5151 7.42769 11.2876 6.94637ZM8 3.04574C8.92698 3.04574 9.82894 3.1958 10.6786 3.47626L9.11563 5.03928C8.75841 4.92412 8.38231 4.86392 8 4.86392C7.03558 4.86392 6.11065 5.24703 5.4287 5.92898C4.74675 6.61093 4.36364 7.53586 4.36364 8.50028C4.36364 8.88262 4.42385 9.25875 4.53902 9.61599L2.33337 11.8217C1.33244 10.9462 0.520477 9.82434 0 8.50028C1.29455 5.22755 4.46545 3.04574 8 3.04574ZM6.45722 6.9575C6.82609 6.58863 7.31345 6.36548 7.82983 6.3251L5.82482 8.33016C5.86519 7.81376 6.08834 7.32639 6.45722 6.9575Z" fill="#006FFD"/>
</mask>
<g mask="url(#mask0_44_1432)">
<rect y="0.5" width="16" height="16" fill="#717171"/>
</g>
</svg>
