<svg width="33" height="32" viewBox="0 0 33 32" fill="none" xmlns="http://www.w3.org/2000/svg">
<path d="M29.9496 12.2387C29.8657 11.9918 29.7115 11.7749 29.5058 11.6148C29.3001 11.4546 29.0521 11.3582 28.7922 11.3374L21.1909 10.7334L17.9016 3.45202C17.7968 3.2175 17.6264 3.01831 17.4109 2.8785C17.1955 2.73868 16.9442 2.6642 16.6873 2.66406C16.4305 2.66392 16.1791 2.73812 15.9635 2.8777C15.7478 3.01728 15.5772 3.21628 15.4722 3.45069L12.1829 10.7334L4.58155 11.3374C4.32616 11.3576 4.082 11.451 3.87829 11.6063C3.67458 11.7617 3.51994 11.9724 3.43287 12.2134C3.34581 12.4543 3.33 12.7153 3.38734 12.965C3.44469 13.2147 3.57275 13.4425 3.75622 13.6214L9.37355 19.0974L7.38688 27.7C7.32656 27.9604 7.34589 28.2329 7.44238 28.4822C7.53886 28.7315 7.70804 28.946 7.92795 29.0979C8.14787 29.2499 8.40838 29.3322 8.67566 29.3342C8.94295 29.3363 9.20468 29.2579 9.42688 29.1094L16.6869 24.2694L23.9469 29.1094C24.174 29.2601 24.4418 29.3378 24.7144 29.3318C24.9869 29.3258 25.2511 29.2365 25.4714 29.0759C25.6917 28.9153 25.8575 28.6911 25.9466 28.4334C26.0356 28.1758 26.0436 27.897 25.9696 27.6347L23.5309 19.1014L29.5789 13.6587C29.9749 13.3014 30.1202 12.744 29.9496 12.2387Z" fill="#189AD3"/>
</svg>
