<svg width="32" height="32" viewBox="0 0 32 32" fill="none" xmlns="http://www.w3.org/2000/svg">
<path d="M29.263 12.2387C29.1792 11.9918 29.025 11.7749 28.8193 11.6148C28.6136 11.4546 28.3655 11.3582 28.1057 11.3374L20.5044 10.7334L17.215 3.45202C17.1103 3.2175 16.9399 3.01831 16.7244 2.8785C16.509 2.73868 16.2576 2.6642 16.0008 2.66406C15.7439 2.66392 15.4925 2.73812 15.2769 2.8777C15.0613 3.01728 14.8907 3.21628 14.7857 3.45069L11.4964 10.7334L3.89503 11.3374C3.63963 11.3576 3.39548 11.451 3.19177 11.6063C2.98806 11.7617 2.83342 11.9724 2.74635 12.2134C2.65929 12.4543 2.64348 12.7153 2.70082 12.965C2.75816 13.2147 2.88623 13.4425 3.06969 13.6214L8.68703 19.0974L6.70036 27.7C6.64004 27.9604 6.65937 28.2329 6.75585 28.4822C6.85234 28.7315 7.02151 28.946 7.24143 29.0979C7.46135 29.2499 7.72185 29.3322 7.98914 29.3342C8.25643 29.3363 8.51815 29.2579 8.74036 29.1094L16.0004 24.2694L23.2604 29.1094C23.4875 29.2601 23.7553 29.3378 24.0279 29.3318C24.3004 29.3258 24.5646 29.2365 24.7849 29.0759C25.0052 28.9153 25.171 28.6911 25.2601 28.4334C25.3491 28.1758 25.3571 27.897 25.283 27.6347L22.8444 19.1014L28.8924 13.6587C29.2884 13.3014 29.4337 12.744 29.263 12.2387Z" fill="#189AD3"/>
</svg>
