<svg width="33" height="32" viewBox="0 0 33 32" fill="none" xmlns="http://www.w3.org/2000/svg">
<path d="M30.1058 12.2387C30.022 11.9918 29.8677 11.7749 29.6621 11.6148C29.4564 11.4546 29.2083 11.3582 28.9485 11.3374L21.3471 10.7334L18.0578 3.45202C17.953 3.2175 17.7827 3.01831 17.5672 2.8785C17.3517 2.73868 17.1004 2.6642 16.8436 2.66406C16.5867 2.66392 16.3353 2.73812 16.1197 2.8777C15.9041 3.01728 15.7335 3.21628 15.6285 3.45069L12.3391 10.7334L4.7378 11.3374C4.48241 11.3576 4.23825 11.451 4.03454 11.6063C3.83083 11.7617 3.67619 11.9724 3.58912 12.2134C3.50206 12.4543 3.48625 12.7153 3.54359 12.965C3.60094 13.2147 3.729 13.4425 3.91247 13.6214L9.5298 19.0974L7.54313 27.7C7.48281 27.9604 7.50214 28.2329 7.59863 28.4822C7.69511 28.7315 7.86429 28.946 8.0842 29.0979C8.30412 29.2499 8.56463 29.3322 8.83191 29.3342C9.0992 29.3363 9.36093 29.2579 9.58313 29.1094L16.8431 24.2694L24.1031 29.1094C24.3302 29.2601 24.5981 29.3378 24.8706 29.3318C25.1432 29.3258 25.4074 29.2365 25.6277 29.0759C25.8479 28.9153 26.0138 28.6911 26.1028 28.4334C26.1919 28.1758 26.1999 27.897 26.1258 27.6347L23.6871 19.1014L29.7351 13.6587C30.1311 13.3014 30.2765 12.744 30.1058 12.2387Z" fill="#189AD3"/>
</svg>
