<svg width="33" height="32" viewBox="0 0 33 32" fill="none" xmlns="http://www.w3.org/2000/svg">
<path d="M29.7923 12.2387C29.7085 11.9918 29.5543 11.7749 29.3486 11.6148C29.1429 11.4546 28.8948 11.3582 28.635 11.3374L21.0337 10.7334L17.7443 3.45202C17.6396 3.2175 17.4692 3.01831 17.2537 2.8785C17.0383 2.73868 16.7869 2.6642 16.5301 2.66406C16.2732 2.66392 16.0218 2.73812 15.8062 2.8777C15.5906 3.01728 15.42 3.21628 15.315 3.45069L12.0257 10.7334L4.42432 11.3374C4.16893 11.3576 3.92477 11.451 3.72106 11.6063C3.51735 11.7617 3.36271 11.9724 3.27565 12.2134C3.18858 12.4543 3.17277 12.7153 3.23012 12.965C3.28746 13.2147 3.41553 13.4425 3.59899 13.6214L9.21632 19.0974L7.22966 27.7C7.16933 27.9604 7.18867 28.2329 7.28515 28.4822C7.38163 28.7315 7.55081 28.946 7.77073 29.0979C7.99064 29.2499 8.25115 29.3322 8.51844 29.3342C8.78572 29.3363 9.04745 29.2579 9.26966 29.1094L16.5297 24.2694L23.7897 29.1094C24.0168 29.2601 24.2846 29.3378 24.5572 29.3318C24.8297 29.3258 25.0939 29.2365 25.3142 29.0759C25.5345 28.9153 25.7003 28.6911 25.7893 28.4334C25.8784 28.1758 25.8864 27.897 25.8123 27.6347L23.3737 19.1014L29.4217 13.6587C29.8177 13.3014 29.963 12.744 29.7923 12.2387Z" fill="#189AD3"/>
</svg>
