<svg width="43" height="43" viewBox="0 0 43 43" fill="none" xmlns="http://www.w3.org/2000/svg">
<g clip-path="url(#clip0_67_6463)">
<path d="M10.9101 41.8621C9.28553 41.844 7.67628 41.546 6.15294 40.9813C5.04054 40.5701 4.03409 39.9155 3.20718 39.0654C2.35473 38.2401 1.69916 37.2334 1.28918 36.12C0.724958 34.5968 0.427429 32.9876 0.409648 31.3633C0.284883 28.663 0.259766 27.853 0.259766 21.0107C0.259766 14.1684 0.287354 13.3614 0.408413 10.659C0.428351 9.0353 0.726247 7.42702 1.28918 5.90392C1.70116 4.79133 2.3558 3.78448 3.20553 2.95651C4.03142 2.10483 5.03834 1.44987 6.15171 1.04015C7.67504 0.475467 9.2843 0.177519 10.9088 0.159389C13.61 0.0358598 14.4212 0.0107422 21.2598 0.0107422C28.0984 0.0107422 28.9091 0.0383304 31.6115 0.159389C33.2356 0.179187 34.8443 0.477084 36.3678 1.04015C37.4807 1.45041 38.4873 2.10514 39.3136 2.9561C40.1648 3.78261 40.8198 4.78952 41.2304 5.90268C41.7952 7.42599 42.0933 9.03525 42.1115 10.6598C42.2351 13.3622 42.2602 14.1713 42.2602 21.0116C42.2602 27.8518 42.2351 28.6609 42.1115 31.3633C42.0919 32.9876 41.7939 34.5965 41.2304 36.12C40.8041 37.2249 40.1512 38.2282 39.3137 39.0655C38.4763 39.9027 37.4728 40.5553 36.3678 40.9813C34.8445 41.5462 33.2353 41.8442 31.6107 41.8625C28.9108 41.986 28.0992 42.0112 21.2589 42.0112C14.4187 42.0112 13.6096 41.9873 10.9096 41.8625" fill="white"/>
<g clip-path="url(#clip1_67_6463)">
<path d="M25.4785 9.76074H17.041C15.1762 9.76074 13.3878 10.5015 12.0692 11.8201C10.7506 13.1388 10.0098 14.9272 10.0098 16.792L10.0098 25.2295C10.0098 27.0943 10.7506 28.8827 12.0692 30.2013C13.3878 31.52 15.1762 32.2607 17.041 32.2607H25.4785C27.3433 32.2607 29.1317 31.52 30.4504 30.2013C31.769 28.8827 32.5098 27.0943 32.5098 25.2295V16.792C32.5098 14.9272 31.769 13.1388 30.4504 11.8201C29.1317 10.5015 27.3433 9.76074 25.4785 9.76074ZM30.4004 25.2295C30.4004 27.9436 28.1926 30.1514 25.4785 30.1514H17.041C14.327 30.1514 12.1191 27.9436 12.1191 25.2295V16.792C12.1191 14.0779 14.327 11.8701 17.041 11.8701H25.4785C28.1926 11.8701 30.4004 14.0779 30.4004 16.792V25.2295Z" fill="#189AD3"/>
<path d="M21.625 15.0002C20.1332 15.0002 18.7024 15.5929 17.6475 16.6478C16.5926 17.7027 16 19.1334 16 20.6252C16 22.1171 16.5926 23.5478 17.6475 24.6027C18.7024 25.6576 20.1332 26.2502 21.625 26.2502C23.1168 26.2502 24.5476 25.6576 25.6025 24.6027C26.6574 23.5478 27.25 22.1171 27.25 20.6252C27.25 19.1334 26.6574 17.7027 25.6025 16.6478C24.5476 15.5929 23.1168 15.0002 21.625 15.0002ZM21.625 24.1409C20.6929 24.1398 19.7994 23.769 19.1403 23.1099C18.4812 22.4509 18.1105 21.5573 18.1094 20.6252C18.1094 18.686 19.6872 17.1096 21.625 17.1096C23.5628 17.1096 25.1406 18.686 25.1406 20.6252C25.1406 22.5631 23.5628 24.1409 21.625 24.1409Z" fill="#189AD3"/>
<path d="M27.3062 15.7134C27.7201 15.7134 28.0557 15.3778 28.0557 14.9639C28.0557 14.5499 27.7201 14.2144 27.3062 14.2144C26.8922 14.2144 26.5566 14.5499 26.5566 14.9639C26.5566 15.3778 26.8922 15.7134 27.3062 15.7134Z" fill="#189AD3"/>
</g>
</g>
<defs>
<clipPath id="clip0_67_6463">
<rect x="0.259766" y="0.0107422" width="42" height="42" rx="21" fill="white"/>
</clipPath>
<clipPath id="clip1_67_6463">
<rect width="22.5" height="22.5" fill="white" transform="translate(10.0098 9.76074)"/>
</clipPath>
</defs>
</svg>
