<svg width="32" height="32" viewBox="0 0 32 32" fill="none" xmlns="http://www.w3.org/2000/svg">
<path d="M16.3128 5.302C15.6625 5.29942 15.0264 5.49133 14.4861 5.85307C13.9458 6.2148 13.5261 6.72984 13.2808 7.332C12.7628 7.041 12.1678 6.552 11.5308 6.552C11.0628 6.55121 10.5992 6.6428 10.1667 6.82153C9.73418 7.00026 9.34119 7.2626 9.01027 7.59352C8.67935 7.92444 8.41701 8.31743 8.23828 8.74994C8.05955 9.18246 7.96796 9.64601 7.96875 10.114C7.96875 10.981 8.29875 11.554 8.81275 12.172C7.84332 12.2217 6.92997 12.6417 6.2612 13.3453C5.59242 14.0488 5.21927 14.9823 5.21875 15.953C5.21836 16.4538 5.31668 16.9497 5.5081 17.4124C5.69952 17.8751 5.98028 18.2956 6.33432 18.6497C6.68836 19.0039 7.10874 19.2847 7.57142 19.4763C8.0341 19.6678 8.52999 19.7663 9.03075 19.766C9.72687 19.7643 10.4089 19.5694 11.0008 19.203V26.703H21.0007V18.891C21.5727 19.234 22.2208 19.453 22.9378 19.453C25.0458 19.453 26.7808 17.749 26.7808 15.641C26.7808 13.98 25.6998 12.571 24.2188 12.047C24.3588 12.047 24.2718 12.119 24.2808 12.047C24.3078 8.623 22.0908 8.177 19.5928 8.985C19.6078 8.858 19.6238 8.74 19.6238 8.61C19.6222 7.73199 19.2727 6.89039 18.652 6.26946C18.0312 5.64852 17.1898 5.29885 16.3118 5.297L16.3128 5.302Z" fill="#49D97C" stroke="#49D97C" stroke-linecap="round" stroke-linejoin="round"/>
</svg>
