<svg width="32" height="32" viewBox="0 0 32 32" fill="none" xmlns="http://www.w3.org/2000/svg">
<path d="M28.0003 26.6667C27.3774 26.6833 26.7639 26.5113 26.2403 26.1733C25.3191 25.6237 24.2664 25.3336 23.1937 25.3336C22.121 25.3336 21.0682 25.6237 20.147 26.1733C19.6234 26.5113 19.01 26.6833 18.387 26.6667C17.7679 26.6856 17.158 26.5134 16.6403 26.1733C15.7252 25.604 14.6646 25.3122 13.587 25.3333C12.5138 25.314 11.458 25.6058 10.547 26.1733C10.0282 26.511 9.41909 26.6831 8.80033 26.6667C8.17736 26.6833 7.5639 26.5113 7.04033 26.1733C6.13025 25.6036 5.07379 25.3117 4.00033 25.3333C3.6467 25.3333 3.30756 25.4738 3.05752 25.7238C2.80747 25.9739 2.66699 26.313 2.66699 26.6667C2.66699 27.0203 2.80747 27.3594 3.05752 27.6095C3.30756 27.8595 3.6467 28 4.00033 28C4.61941 27.981 5.22931 28.1533 5.74699 28.4933C6.66214 29.0627 7.72274 29.3544 8.80033 29.3333C9.87379 29.3549 10.9302 29.063 11.8403 28.4933C12.3591 28.1556 12.9682 27.9836 13.587 28C14.21 27.9834 14.8234 28.1553 15.347 28.4933C16.2571 29.063 17.3135 29.3549 18.387 29.3333C19.4646 29.3544 20.5252 29.0627 21.4403 28.4933C21.9632 28.1538 22.5771 27.9817 23.2003 28C23.8194 27.981 24.4293 28.1533 24.947 28.4933C25.8631 29.0606 26.923 29.3522 28.0003 29.3333C28.3539 29.3333 28.6931 29.1928 28.9431 28.9428C29.1932 28.6927 29.3337 28.3536 29.3337 28C29.3337 27.6464 29.1932 27.3072 28.9431 27.0572C28.6931 26.8071 28.3539 26.6667 28.0003 26.6667ZM4.00033 22.6667C4.61941 22.6477 5.22931 22.8199 5.74699 23.16C6.66214 23.7293 7.72274 24.0211 8.80033 24C9.87379 24.0216 10.9302 23.7297 11.8403 23.16C12.3591 22.8223 12.9682 22.6503 13.587 22.6667C14.21 22.6501 14.8234 22.822 15.347 23.16C16.2571 23.7297 17.3135 24.0216 18.387 24C19.4646 24.0211 20.5252 23.7293 21.4403 23.16C21.9632 22.8205 22.5771 22.6484 23.2003 22.6667C23.8194 22.6477 24.4293 22.8199 24.947 23.16C25.8631 23.7272 26.923 24.0188 28.0003 24C28.3539 24 28.6931 23.8595 28.9431 23.6095C29.1932 23.3594 29.3337 23.0203 29.3337 22.6667C29.3337 22.313 29.1932 21.9739 28.9431 21.7238C28.6931 21.4738 28.3539 21.3333 28.0003 21.3333C27.3774 21.3499 26.7639 21.178 26.2403 20.84C25.3302 20.2703 24.2738 19.9784 23.2003 20C23.0003 20 22.8403 20 22.667 20V7.33332C22.6139 6.80289 22.7738 6.27311 23.1114 5.86053C23.4489 5.44795 23.9366 5.18636 24.467 5.13332C24.9974 5.08028 25.5272 5.24012 25.9398 5.57769C26.3524 5.91525 26.6139 6.40289 26.667 6.93332C26.702 7.10842 26.7712 7.2749 26.8705 7.42327C26.9699 7.57163 27.0975 7.69898 27.2461 7.79802C27.3947 7.89707 27.5613 7.96589 27.7364 8.00054C27.9116 8.03519 28.0919 8.03501 28.267 7.99999C28.4421 7.96497 28.6086 7.8958 28.7569 7.79644C28.9053 7.69708 29.0326 7.56947 29.1317 7.4209C29.2307 7.27233 29.2996 7.1057 29.3342 6.93053C29.3689 6.75536 29.3687 6.57508 29.3337 6.39999C29.2099 5.16231 28.5995 4.02449 27.6368 3.23684C26.6742 2.44919 25.438 2.07622 24.2003 2.19999C22.9626 2.32375 21.8248 2.93412 21.0372 3.8968C20.2495 4.85949 19.8766 6.09564 20.0003 7.33332V10.6667H9.33366V7.33332C9.28062 6.80289 9.44046 6.27311 9.77802 5.86053C10.1156 5.44795 10.6032 5.18636 11.1337 5.13332C11.6641 5.08028 12.1939 5.24012 12.6065 5.57769C13.019 5.91525 13.2806 6.40289 13.3337 6.93332C13.4044 7.28694 13.6127 7.59799 13.9127 7.79802C14.0613 7.89707 14.2279 7.96589 14.4031 8.00054C14.5783 8.03519 14.7586 8.03501 14.9337 7.99999C15.1088 7.96497 15.2752 7.8958 15.4236 7.79644C15.572 7.69708 15.6993 7.56947 15.7984 7.4209C15.8974 7.27233 15.9662 7.1057 16.0009 6.93053C16.0355 6.75536 16.0353 6.57508 16.0003 6.39999C15.8766 5.16231 15.2662 4.02449 14.3035 3.23684C13.3408 2.44919 12.1047 2.07622 10.867 2.19999C9.62931 2.32375 8.4915 2.93412 7.70384 3.8968C6.91619 4.85949 6.54322 6.09564 6.66699 7.33332V20.6667C5.84896 20.222 4.93135 19.9926 4.00033 20C3.6467 20 3.30756 20.1405 3.05752 20.3905C2.80747 20.6406 2.66699 20.9797 2.66699 21.3333C2.66699 21.6869 2.80747 22.0261 3.05752 22.2761C3.30756 22.5262 3.6467 22.6667 4.00033 22.6667ZM16.6403 20.84C15.7252 20.2706 14.6646 19.9789 13.587 20C12.5138 19.9807 11.458 20.2724 10.547 20.84C10.1813 21.087 9.76801 21.255 9.33366 21.3333V18.6667H20.0003V20.9067C19.5158 21.2035 18.9549 21.3519 18.387 21.3333C17.7679 21.3523 17.158 21.18 16.6403 20.84ZM20.0003 13.3333V16H9.33366V13.3333H20.0003Z" fill="#49D97C"/>
</svg>
