<svg width="43" height="43" viewBox="0 0 43 43" fill="none" xmlns="http://www.w3.org/2000/svg">
<g clip-path="url(#clip0_67_6460)">
<path d="M33.3024 0.0107422H9.21714C4.27012 0.0107422 0.259766 4.0211 0.259766 8.96812V33.0534C0.259766 38.0004 4.27012 42.0107 9.21714 42.0107H33.3024C38.2494 42.0107 42.2598 38.0004 42.2598 33.0534V8.96812C42.2598 4.0211 38.2494 0.0107422 33.3024 0.0107422Z" fill="white"/>
<path fill-rule="evenodd" clip-rule="evenodd" d="M34.0349 14.6403C33.1141 15.048 32.1374 15.3155 31.1373 15.434C32.1832 14.8064 32.9829 13.816 33.3521 12.6409C32.3627 13.2273 31.281 13.6413 30.153 13.8652C29.4618 13.1232 28.563 12.6067 27.5739 12.3832C26.5848 12.1596 25.5513 12.2393 24.6082 12.6119C23.665 12.9845 22.8561 13.6327 22.2869 14.4719C21.7176 15.3111 21.4145 16.3024 21.4171 17.3165C21.4159 17.7036 21.4592 18.0897 21.5463 18.4669C19.5396 18.3663 17.5765 17.8449 15.7843 16.9366C13.9921 16.0283 12.4109 14.7534 11.1432 13.1946C10.4947 14.3058 10.2953 15.6228 10.5858 16.8762C10.8763 18.1295 11.6346 19.2246 12.7058 19.9372C11.9032 19.9121 11.1184 19.6948 10.4172 19.3036V19.3651C10.4172 21.8136 12.1583 23.8561 14.4653 24.3175C13.7231 24.52 12.9444 24.5495 12.189 24.4036C12.5116 25.406 13.1391 26.2827 13.9839 26.9113C14.8287 27.54 15.8487 27.8892 16.9015 27.9103C15.8544 28.7334 14.6551 29.3418 13.3725 29.7008C12.0899 30.0597 10.749 30.162 9.42676 30.002C11.6599 31.4354 14.3115 32.2659 17.166 32.2659C26.4556 32.2659 31.531 24.5759 31.531 17.9009C31.531 17.6856 31.531 17.4703 31.5187 17.2488C32.5031 16.5413 33.3644 15.6493 34.0411 14.6403H34.0349Z" fill="#189AD3"/>
</g>
<defs>
<clipPath id="clip0_67_6460">
<rect x="0.259766" y="0.0107422" width="42" height="42" rx="21" fill="white"/>
</clipPath>
</defs>
</svg>
