<svg width="12" height="17" viewBox="0 0 12 17" fill="none" xmlns="http://www.w3.org/2000/svg">
<path d="M5.87266 16.4998C5.71242 16.4249 5.57798 16.3041 5.48659 16.1526C3.9984 14.0486 2.49895 11.9526 1.01886 9.84235C0.455112 9.0324 0.113839 8.08912 0.0289354 7.10629C-0.220923 4.54623 1.16469 2.08372 3.5149 1.068C5.79602 0.0808333 7.95059 0.381633 9.87951 1.96086C10.4611 2.43306 10.9436 3.01543 11.2993 3.67438C11.655 4.3334 11.877 5.05595 11.9525 5.80083C12.1441 7.29715 11.7518 8.80969 10.8567 10.0248C9.41601 12.0515 7.97433 14.082 6.53143 16.116C6.43757 16.2826 6.29509 16.4166 6.12291 16.5L5.87266 16.4998ZM7.99533 6.5224C7.99734 5.99429 7.78983 5.48692 7.41828 5.11123C7.04663 4.73558 6.5411 4.52229 6.01243 4.51792C5.48367 4.51357 4.97479 4.71859 4.59707 5.08812C4.21939 5.45766 4.00361 5.96155 3.997 6.48969C3.9903 7.01769 4.19345 7.52686 4.56175 7.90575C4.93005 8.28455 5.43367 8.50229 5.96234 8.51112C6.49625 8.51759 7.0107 8.31145 7.3922 7.93823C7.77357 7.56512 7.99058 7.05563 7.99527 6.52237L7.99533 6.5224Z" fill="#189AD3"/>
</svg>
