<svg width="56" height="57" viewBox="0 0 56 57" fill="none" xmlns="http://www.w3.org/2000/svg">
<path d="M36.7349 31.579C36.0533 30.842 35.2879 30.1873 34.4542 29.6281C37.8183 27.0271 40.1758 23.3396 41.1247 19.1946C41.1947 18.895 41.2048 18.5846 41.1544 18.2811C41.1041 17.9776 40.9942 17.6871 40.8311 17.4263C40.668 17.1655 40.4549 16.9394 40.2042 16.7613C39.9534 16.5831 39.6699 16.4562 39.3699 16.388C39.0699 16.3198 38.7594 16.3116 38.4563 16.3639C38.1531 16.4161 37.8633 16.5278 37.6034 16.6925C37.3436 16.8572 37.1189 17.0717 36.9423 17.3235C36.7656 17.5754 36.6406 17.8597 36.5742 18.1601C36.1323 20.099 35.2727 21.9182 34.0555 23.4908C32.8382 25.0634 31.2926 26.3515 29.5264 27.2654V18.682C29.512 18.5103 29.4777 18.3408 29.4244 18.177C29.409 18.0421 29.382 17.9087 29.3439 17.7784C29.2444 17.5662 29.1131 17.3703 28.9547 17.1976C28.913 17.148 28.8919 17.0827 28.8463 17.0368C28.6754 16.879 28.4819 16.7476 28.2721 16.647C28.2126 16.6153 28.1683 16.5616 28.1058 16.535C27.927 16.4755 27.7418 16.4374 27.5541 16.4215C27.4382 16.3876 27.3197 16.3633 27.1999 16.3487L25.6732 16.344H25.6663C25.1205 16.3414 24.5912 16.5312 24.1713 16.88C23.7514 17.2288 23.4678 17.7144 23.3703 18.2514C23.2729 18.7885 23.3677 19.3428 23.6382 19.8169C23.9086 20.2911 24.3375 20.6548 24.8494 20.8442V32.2558C21.1519 28.4175 18.7035 23.5493 17.8267 18.2923C17.7755 17.9902 17.6653 17.7012 17.5024 17.4417C17.3396 17.1822 17.1272 16.9573 16.8774 16.7799C16.6276 16.6025 16.3453 16.476 16.0467 16.4077C15.748 16.3394 15.4388 16.3305 15.1367 16.3817C14.8346 16.4329 14.5456 16.543 14.2861 16.7059C14.0266 16.8688 13.8017 17.0812 13.6243 17.331C13.4469 17.5808 13.3204 17.863 13.2521 18.1617C13.1837 18.4604 13.1749 18.7696 13.2261 19.0717C14.5897 27.1976 19.121 34.4508 25.8258 39.2399C25.9215 39.2972 26.0212 39.3475 26.1241 39.3903C26.2049 39.4378 26.2886 39.48 26.3749 39.5168C26.6353 39.6209 26.9126 39.6769 27.193 39.682C27.5363 39.6778 27.8743 39.5965 28.182 39.4443C28.2052 39.4334 28.2318 39.4385 28.2549 39.4268C28.4611 39.3194 28.65 39.1815 28.8152 39.0178C28.8483 38.9854 28.8705 38.9457 28.9019 38.9115C29.0524 38.7461 29.1781 38.5597 29.275 38.3581C29.3075 38.2912 29.3371 38.2272 29.3632 38.1569C29.4657 37.8995 29.521 37.6257 29.5264 37.3487L29.5275 32.388C30.9732 32.8125 32.2759 33.6231 33.2952 34.7327L37.1405 38.9254C37.3473 39.152 37.5968 39.3355 37.8747 39.4655C38.1526 39.5955 38.4534 39.6694 38.7599 39.683C39.0664 39.6966 39.3726 39.6496 39.6609 39.5447C39.9492 39.4398 40.214 39.2791 40.4401 39.0717C40.6662 38.8643 40.8492 38.6144 40.9785 38.3362C41.1079 38.058 41.1811 37.7571 41.194 37.4505C41.2069 37.144 41.1592 36.838 41.0537 36.5499C40.9481 36.2618 40.7868 35.9974 40.5789 35.7718L36.7349 31.579ZM35.1694 2.34399H20.8538C6.48697 2.34399 2.33301 6.49341 2.33301 20.8398V35.1565C2.33301 49.5234 6.48128 53.6773 20.8299 53.6773H35.1455C49.5124 53.6773 53.6663 49.5279 53.6663 35.1816V20.8648C53.6663 6.49796 49.5181 2.34399 35.1694 2.34399ZM48.9997 35.1816C48.9997 46.9416 46.9284 49.0107 35.1455 49.0107H20.8299C9.06754 49.0107 6.99967 46.9394 6.99967 35.1565V20.8398C6.99967 9.07967 9.07097 7.01066 20.8538 7.01066H35.1694C46.9318 7.01066 48.9997 9.08196 48.9997 20.8648V35.1816Z" fill="white"/>
</svg>
