<svg width="57" height="57" viewBox="0 0 57 57" fill="none" xmlns="http://www.w3.org/2000/svg">
<path d="M37.2353 32.0683C36.5538 31.3313 35.7884 30.6765 34.9547 30.1173C38.3188 27.5164 40.6763 23.8289 41.6252 19.6838C41.6952 19.3843 41.7053 19.0738 41.6549 18.7704C41.6045 18.4669 41.4946 18.1764 41.3316 17.9156C41.1685 17.6547 40.9554 17.4287 40.7046 17.2505C40.4539 17.0723 40.1703 16.9455 39.8704 16.8773C39.5704 16.8091 39.2599 16.8009 38.9568 16.8531C38.6536 16.9054 38.3638 17.0171 38.1039 17.1818C37.8441 17.3465 37.6194 17.5609 37.4428 17.8128C37.2661 18.0646 37.141 18.3489 37.0747 18.6493C36.6327 20.5883 35.7732 22.4074 34.5559 23.98C33.3387 25.5526 31.7931 26.8408 30.0269 27.7547V19.1713C30.0124 18.9995 29.9782 18.8301 29.9249 18.6662C29.9094 18.5313 29.8825 18.398 29.8444 18.2676C29.7449 18.0554 29.6136 17.8596 29.4552 17.6869C29.4135 17.6373 29.3924 17.5719 29.3468 17.5261C29.1759 17.3683 28.9823 17.2369 28.7726 17.1363C28.7131 17.1045 28.6688 17.0508 28.6063 17.0243C28.4275 16.9647 28.2423 16.9266 28.0545 16.9108C27.9387 16.8769 27.8202 16.8525 27.7004 16.838L26.1737 16.8333H26.1668C25.621 16.8306 25.0916 17.0204 24.6718 17.3692C24.2519 17.718 23.9683 18.2036 23.8708 18.7407C23.7733 19.2778 23.8682 19.8321 24.1386 20.3062C24.4091 20.7803 24.838 21.144 25.3499 21.3334V32.745C21.6524 28.9067 19.204 24.0386 18.3272 18.7816C18.276 18.4795 18.1658 18.1905 18.0029 17.931C17.8401 17.6715 17.6277 17.4466 17.3779 17.2692C17.1281 17.0917 16.8458 16.9653 16.5471 16.8969C16.2485 16.8286 15.9393 16.8198 15.6372 16.871C15.3351 16.9221 15.0461 17.0323 14.7866 17.1952C14.5271 17.3581 14.3022 17.5704 14.1248 17.8202C13.9474 18.07 13.8209 18.3523 13.7525 18.651C13.6842 18.9496 13.6754 19.2588 13.7266 19.5609C15.0901 27.6869 19.6215 34.9401 26.3263 39.7292C26.422 39.7865 26.5216 39.8368 26.6246 39.8796C26.7054 39.9271 26.7891 39.9693 26.8753 40.0061C27.1358 40.1102 27.4131 40.1661 27.6935 40.1713C28.0368 40.167 28.3747 40.0858 28.6824 39.9336C28.7057 39.9226 28.7323 39.9277 28.7554 39.9161C28.9616 39.8086 29.1505 39.6707 29.3156 39.507C29.3488 39.4747 29.371 39.435 29.4024 39.4008C29.5529 39.2354 29.6786 39.049 29.7755 38.8474C29.808 38.7804 29.8376 38.7165 29.8636 38.6461C29.9662 38.3887 30.0215 38.1149 30.0269 37.8379L30.028 32.8773C31.4737 33.3018 32.7763 34.1124 33.7957 35.222L37.6409 39.4147C37.8478 39.6412 38.0973 39.8248 38.3752 39.9548C38.6531 40.0848 38.9539 40.1587 39.2604 40.1723C39.5669 40.1859 39.8731 40.1389 40.1614 40.034C40.4497 39.9291 40.7145 39.7683 40.9406 39.561C41.1667 39.3536 41.3496 39.1037 41.479 38.8255C41.6084 38.5473 41.6816 38.2463 41.6945 37.9398C41.7074 37.6333 41.6597 37.3272 41.5542 37.0391C41.4486 36.7511 41.2873 36.4867 41.0794 36.261L37.2353 32.0683ZM35.6699 2.83325H21.3543C6.98746 2.83325 2.8335 6.98266 2.8335 21.329V35.6458C2.8335 50.0126 6.98177 54.1666 21.3304 54.1666H35.646C50.0129 54.1666 54.1668 50.0172 54.1668 35.6708V21.3541C54.1668 6.98722 50.0186 2.83325 35.6699 2.83325ZM49.5002 35.6708C49.5002 47.4309 47.4289 49.4999 35.646 49.4999H21.3304C9.56803 49.4999 7.50016 47.4286 7.50016 35.6458V21.329C7.50016 9.56893 9.57146 7.49992 21.3543 7.49992H35.6699C47.4323 7.49992 49.5002 9.57122 49.5002 21.3541V35.6708Z" fill="#189AD3"/>
</svg>
