<svg width="34" height="32" viewBox="0 0 34 32" fill="none" xmlns="http://www.w3.org/2000/svg">
<path d="M9.93791 16.9948C7.94962 16.9948 6.06919 16.7018 4.63776 16.1636C2.45721 15.3459 2 14.2469 2 13.4673C2 12.6877 2.4578 11.5915 4.63776 10.7709C6.06743 10.2345 7.94962 9.9397 9.93791 9.9397C11.9262 9.9397 13.8066 10.2328 15.2386 10.7709C17.4192 11.5915 17.8764 12.6877 17.8764 13.4673C17.8764 14.2469 17.4186 15.343 15.2386 16.1636C13.809 16.6994 11.9268 16.9948 9.93791 16.9948ZM9.93791 11.7006C8.15537 11.7006 6.49241 11.9561 5.255 12.4198C4.03284 12.8782 3.75792 13.3418 3.75792 13.4684C3.75792 13.5951 4.03284 14.0587 5.255 14.5171C6.49241 14.9808 8.15537 15.2363 9.93791 15.2363C11.7205 15.2363 13.384 14.9808 14.6208 14.5171C15.843 14.0587 16.1185 13.5951 16.1185 13.4684C16.1185 13.3418 15.843 12.8782 14.6208 12.4198C13.384 11.9561 11.721 11.7006 9.93791 11.7006ZM9.93791 25.819C7.94962 25.819 6.06919 25.526 4.63776 24.9878C2.45721 24.1701 2 23.0711 2 22.2915C2 22.0583 2.09264 21.8346 2.25753 21.6697C2.42242 21.5048 2.64606 21.4122 2.87925 21.4122C3.11245 21.4122 3.33609 21.5048 3.50098 21.6697C3.66587 21.8346 3.75851 22.0583 3.75851 22.2915C3.75851 22.4181 4.03342 22.8817 5.25559 23.3401C6.49241 23.8055 8.1542 24.0605 9.93791 24.0605C11.7216 24.0605 13.384 23.805 14.6208 23.3413C15.843 22.8829 16.1185 22.4193 16.1185 22.2926C16.1185 22.0594 16.2111 21.8358 16.376 21.6709C16.5409 21.506 16.7645 21.4134 16.9977 21.4134C17.2309 21.4134 17.4546 21.506 17.6195 21.6709C17.7844 21.8358 17.877 22.0594 17.877 22.2926C17.877 23.0711 17.4192 24.1684 15.2392 24.989C13.809 25.5236 11.9268 25.819 9.93791 25.819Z" fill="#189AD3"/>
<path d="M9.9385 21.4069C7.95021 21.4069 6.06978 21.1138 4.63835 20.5757C2.4578 19.7609 2 18.6589 2 17.8805C2 17.6473 2.09264 17.4236 2.25753 17.2587C2.42242 17.0939 2.64606 17.0012 2.87925 17.0012C3.11245 17.0012 3.33609 17.0939 3.50098 17.2587C3.66587 17.4236 3.75851 17.6473 3.75851 17.8805C3.75851 18.0071 4.03342 18.4707 5.25559 18.9291C6.49299 19.3928 8.15595 19.6484 9.9385 19.6484C11.721 19.6484 13.3846 19.3928 14.6214 18.9291C15.8436 18.4707 16.1191 18.0071 16.1191 17.8805C16.1191 17.6473 16.2117 17.4236 16.3766 17.2587C16.5415 17.0939 16.7651 17.0012 16.9983 17.0012C17.2315 17.0012 17.4552 17.0939 17.6201 17.2587C17.7849 17.4236 17.8776 17.6473 17.8776 17.8805C17.8776 18.6589 17.4198 19.7562 15.2398 20.5769C13.8096 21.1091 11.9274 21.4069 9.9385 21.4069Z" fill="#189AD3"/>
<path d="M9.93791 30.2311C7.94962 30.2311 6.06919 29.938 4.63776 29.3999C2.45721 28.5822 2 27.4831 2 26.7035V13.4684C2 13.2352 2.09264 13.0116 2.25753 12.8467C2.42242 12.6818 2.64606 12.5892 2.87925 12.5892C3.11245 12.5892 3.33609 12.6818 3.50098 12.8467C3.66587 13.0116 3.75851 13.2352 3.75851 13.4684V26.7047C3.75851 26.8313 4.03342 27.295 5.25559 27.7534C6.49299 28.217 8.15595 28.4726 9.9385 28.4726C11.721 28.4726 13.3846 28.217 14.6214 27.7534C15.8436 27.295 16.1191 26.8313 16.1191 26.7047V13.4684C16.1191 13.2352 16.2117 13.0116 16.3766 12.8467C16.5415 12.6818 16.7651 12.5892 16.9983 12.5892C17.2315 12.5892 17.4552 12.6818 17.6201 12.8467C17.7849 13.0116 17.8776 13.2352 17.8776 13.4684V26.7047C17.8776 27.4831 17.4198 28.5805 15.2398 29.4011C13.809 29.9363 11.9268 30.2311 9.93791 30.2311ZM22.3758 10.3136C19.9386 10.3136 17.6343 9.95315 15.8869 9.29781C13.2996 8.3277 12.7568 7.05396 12.7568 6.15712C12.7568 5.26028 13.2996 3.98829 15.8869 3.01583C17.6343 2.36108 19.9362 2 22.3758 2C24.8155 2 27.118 2.36108 28.8653 3.01583C31.4527 3.98594 31.9955 5.25969 31.9955 6.15712C31.9955 7.05454 31.4527 8.32594 28.8653 9.29781C27.118 9.95315 24.8137 10.3136 22.3758 10.3136ZM22.3758 3.75851C17.2897 3.75851 14.5153 5.34117 14.5153 6.15712C14.5153 6.97306 17.2897 8.55514 22.3758 8.55514C27.462 8.55514 30.237 6.97248 30.237 6.15712C30.237 5.34175 27.4626 3.75851 22.3758 3.75851Z" fill="#189AD3"/>
<path d="M22.3774 24.9368C20.3259 24.9368 18.3798 24.6841 16.7502 24.207C16.5283 24.1398 16.3419 23.9878 16.2315 23.7839C16.1212 23.58 16.0958 23.3408 16.161 23.1183C16.2261 22.8958 16.3765 22.708 16.5794 22.5959C16.7823 22.4837 17.0213 22.4562 17.2444 22.5194C18.694 22.9444 20.5158 23.1782 22.3763 23.1782C27.4625 23.1782 30.2368 21.5956 30.2368 20.7802C30.2368 20.547 30.3294 20.3234 30.4943 20.1585C30.6592 19.9936 30.8829 19.901 31.1161 19.901C31.3493 19.901 31.5729 19.9936 31.7378 20.1585C31.9027 20.3234 31.9953 20.547 31.9953 20.7802C31.9953 21.6771 31.4525 22.9491 28.8646 23.9209C27.119 24.5757 24.8147 24.9368 22.3774 24.9368ZM22.3774 19.8101C20.3259 19.8101 18.385 19.5586 16.7578 19.0827C16.7315 19.0751 16.7051 19.0674 16.6787 19.0586C16.4562 18.9887 16.2707 18.8332 16.1628 18.6264C16.055 18.4197 16.0337 18.1785 16.1037 17.9561C16.1736 17.7336 16.3291 17.548 16.5359 17.4402C16.7426 17.3323 16.9838 17.3111 17.2063 17.381L17.2315 17.3886L17.2485 17.3933C18.6969 17.8177 20.5193 18.0516 22.3798 18.0516C27.466 18.0516 30.2403 16.4689 30.2403 15.653C30.2403 15.4198 30.333 15.1962 30.4979 15.0313C30.6627 14.8664 30.8864 14.7737 31.1196 14.7737C31.3528 14.7737 31.5764 14.8664 31.7413 15.0313C31.9062 15.1962 31.9988 15.4198 31.9988 15.653C31.9988 16.5504 31.456 17.8218 28.8687 18.7943C27.119 19.4496 24.8142 19.8101 22.3774 19.8101ZM13.7584 12.1213C13.5884 12.1214 13.422 12.0723 13.2794 11.9798C13.1368 11.8873 13.024 11.7555 12.9548 11.6002C12.8258 11.3159 12.7587 11.0074 12.7578 10.6952C12.7578 10.462 12.8504 10.2383 13.0153 10.0734C13.1802 9.90855 13.4039 9.81592 13.6371 9.81592C13.8703 9.81592 14.0939 9.90855 14.2588 10.0734C14.4237 10.2383 14.5163 10.462 14.5163 10.6952C14.5176 10.7601 14.5326 10.824 14.5603 10.8827C14.6202 11.0166 14.6457 11.1633 14.6345 11.3095C14.6232 11.4557 14.5756 11.5968 14.4959 11.7199C14.4162 11.843 14.307 11.9442 14.1782 12.0143C14.0493 12.0844 13.9051 12.1212 13.7584 12.1213ZM22.3774 14.8517C20.3147 14.8517 18.3622 14.5973 16.7303 14.1161C16.5099 14.0474 16.3253 13.8947 16.2165 13.6911C16.1076 13.4875 16.0833 13.2492 16.1486 13.0278C16.2139 12.8063 16.3638 12.6195 16.5657 12.5076C16.7677 12.3957 17.0055 12.3677 17.2279 12.4296C18.6793 12.8576 20.5105 13.0932 22.3774 13.0932C27.4636 13.0932 30.238 11.5105 30.238 10.6952C30.238 10.462 30.3306 10.2383 30.4955 10.0734C30.6604 9.90855 30.884 9.81592 31.1172 9.81592C31.3504 9.81592 31.5741 9.90855 31.739 10.0734C31.9039 10.2383 31.9965 10.462 31.9965 10.6952C31.9965 11.5926 31.4537 12.864 28.8658 13.8359C27.119 14.4912 24.8147 14.8517 22.3774 14.8517Z" fill="#189AD3"/>
<path d="M13.6371 12.0927C13.4039 12.0927 13.1802 12.0001 13.0153 11.8352C12.8504 11.6703 12.7578 11.4467 12.7578 11.2135V6.1566C12.7578 5.92341 12.8504 5.69976 13.0153 5.53487C13.1802 5.36998 13.4039 5.27734 13.6371 5.27734C13.8703 5.27734 14.0939 5.36998 14.2588 5.53487C14.4237 5.69976 14.5163 5.92341 14.5163 6.1566V11.2135C14.5163 11.4467 14.4237 11.6703 14.2588 11.8352C14.0939 12.0001 13.8703 12.0927 13.6371 12.0927ZM22.3774 30.2312C19.7115 30.2312 17.1664 29.7886 15.395 29.016C15.1812 28.9228 15.0133 28.7484 14.9281 28.5313C14.8429 28.3142 14.8474 28.0721 14.9407 27.8584C15.034 27.6446 15.2084 27.4767 15.4255 27.3915C15.6426 27.3063 15.8846 27.3108 16.0984 27.4041C17.6564 28.0835 19.9448 28.4727 22.378 28.4727C27.4642 28.4727 30.2386 26.89 30.2386 26.0746V6.1566C30.2386 5.92341 30.3312 5.69976 30.4961 5.53487C30.661 5.36998 30.8846 5.27734 31.1178 5.27734C31.351 5.27734 31.5747 5.36998 31.7395 5.53487C31.9044 5.69976 31.9971 5.92341 31.9971 6.1566V26.0746C31.9971 26.9721 31.4543 28.2435 28.8663 29.2153C27.119 29.8707 24.8147 30.2312 22.3774 30.2312Z" fill="#189AD3"/>
</svg>
