<svg width="32" height="32" viewBox="0 0 32 32" fill="none" xmlns="http://www.w3.org/2000/svg">
<path d="M12.2103 27.6952V23.6062C12.2102 22.5661 13.0581 21.7211 14.1087 21.7141H17.9568C19.0123 21.7141 19.868 22.5612 19.868 23.6062V27.7079C19.8677 28.5909 20.5797 29.3126 21.4714 29.3333H24.0368C26.5942 29.3333 28.6673 27.2809 28.6673 24.7491V13.1171C28.6537 12.1211 28.1813 11.1858 27.3846 10.5773L18.6109 3.58036C17.0739 2.36205 14.8889 2.36205 13.3519 3.58036L4.61668 10.59C3.817 11.196 3.34383 12.1328 3.33398 13.1298V24.7491C3.33398 27.2809 5.40715 29.3333 7.96453 29.3333H10.5299C11.4438 29.3333 12.1846 28.5999 12.1846 27.6952" stroke="#189AD3" stroke-width="1.5" stroke-linecap="round" stroke-linejoin="round"/>
</svg>
