<svg width="32" height="32" viewBox="0 0 32 32" fill="none" xmlns="http://www.w3.org/2000/svg">
<path d="M5.61753 29.4388C4.83501 29.4379 4.0848 29.1267 3.53148 28.5733C2.97816 28.02 2.66691 27.2698 2.66602 26.4873V24.4072C2.68724 23.6385 3.00751 22.9084 3.55871 22.3722C4.10991 21.836 4.84855 21.536 5.61753 21.536C6.38651 21.536 7.12515 21.836 7.67635 22.3722C8.22755 22.9084 8.54782 23.6385 8.56904 24.4072V26.4873C8.56815 27.2698 8.2569 28.02 7.70357 28.5733C7.15025 29.1267 6.40004 29.4379 5.61753 29.4388ZM5.61753 23.1422C5.28189 23.1422 4.95998 23.2755 4.72249 23.5126C4.485 23.7498 4.35135 24.0715 4.35091 24.4072V26.4873C4.35135 26.8226 4.48477 27.1441 4.72189 27.3812C4.95901 27.6184 5.2805 27.7518 5.61584 27.7522C5.95118 27.7518 6.27267 27.6184 6.50979 27.3812C6.74691 27.1441 6.88033 26.8226 6.88077 26.4873V24.4072C6.88092 24.0717 6.748 23.7499 6.51118 23.5124C6.27436 23.2748 5.95297 23.1409 5.61753 23.14V23.1422ZM12.9834 29.4388C12.2009 29.4379 11.4506 29.1267 10.8973 28.5733C10.344 28.02 10.0328 27.2698 10.0319 26.4873V21.034C10.0531 20.2653 10.3734 19.5352 10.9246 18.9991C11.4758 18.4629 12.2144 18.1629 12.9834 18.1629C13.7524 18.1629 14.491 18.4629 15.0422 18.9991C15.5934 19.5352 15.9137 20.2653 15.9349 21.034V26.4873C15.934 27.2698 15.6227 28.02 15.0694 28.5733C14.5161 29.1267 13.7659 29.4379 12.9834 29.4388ZM12.9834 19.7691C12.6477 19.7691 12.3258 19.9023 12.0883 20.1395C11.8508 20.3766 11.7172 20.6984 11.7168 21.034V26.4873C11.7172 26.8226 11.8506 27.1441 12.0877 27.3812C12.3249 27.6184 12.6463 27.7518 12.9817 27.7522C13.317 27.7518 13.6385 27.6184 13.8756 27.3812C14.1128 27.1441 14.2462 26.8226 14.2466 26.4873V21.034C14.2468 20.6986 14.1139 20.3768 13.877 20.1392C13.6402 19.9016 13.3188 19.7677 12.9834 19.7668V19.7691ZM20.3487 29.4388C19.5661 29.4379 18.8159 29.1267 18.2626 28.5733C17.7093 28.02 17.398 27.2698 17.3971 26.4873V17.6609C17.4184 16.8922 17.7386 16.1621 18.2898 15.6259C18.841 15.0897 19.5797 14.7897 20.3487 14.7897C21.1176 14.7897 21.8563 15.0897 22.4075 15.6259C22.9587 16.1621 23.2789 16.8922 23.3002 17.6609V26.4873C23.2993 27.2698 22.988 28.02 22.4347 28.5733C21.8814 29.1267 21.1312 29.4379 20.3487 29.4388ZM20.3487 16.3959C20.013 16.3959 19.6911 16.5291 19.4536 16.7663C19.2161 17.0035 19.0825 17.3252 19.082 17.6609V26.4873C19.0825 26.8226 19.2159 27.1441 19.453 27.3812C19.6901 27.6184 20.0116 27.7518 20.347 27.7522C20.6823 27.7518 21.0038 27.6184 21.2409 27.3812C21.478 27.1441 21.6115 26.8226 21.6119 26.4873V17.6609C21.6122 17.3254 21.4793 17.0035 21.2425 16.7659C21.0056 16.5283 20.6841 16.3944 20.3487 16.3937V16.3959ZM27.7145 29.4388C26.932 29.4379 26.1818 29.1267 25.6285 28.5733C25.0751 28.02 24.7639 27.2698 24.763 26.4873V14.2877C24.7842 13.519 25.1045 12.7889 25.6557 12.2527C26.2069 11.7165 26.9455 11.4165 27.7145 11.4165C28.4835 11.4165 29.2221 11.7165 29.7733 12.2527C30.3245 12.7889 30.6448 13.519 30.666 14.2877V26.4873C30.6651 27.2698 30.3539 28.02 29.8006 28.5733C29.2472 29.1267 28.497 29.4379 27.7145 29.4388ZM27.7145 13.0228C27.3789 13.0228 27.057 13.156 26.8195 13.3932C26.582 13.6303 26.4483 13.9521 26.4479 14.2877V26.4873C26.4483 26.8226 26.5817 27.1441 26.8189 27.3812C27.056 27.6184 27.3775 27.7518 27.7128 27.7522C28.0482 27.7518 28.3696 27.6184 28.6068 27.3812C28.8439 27.1441 28.9773 26.8226 28.9778 26.4873V14.2877C28.9781 13.9522 28.8452 13.6303 28.6083 13.3927C28.3715 13.1551 28.05 13.0213 27.7145 13.0205V13.0228ZM5.83903 16.6219C5.6536 16.6212 5.47361 16.5593 5.32689 16.4459C5.18018 16.3325 5.07492 16.1739 5.02742 15.9947C4.97993 15.8154 4.99283 15.6255 5.06414 15.4544C5.13544 15.2832 5.26118 15.1403 5.42188 15.0478L24.0102 4.50781C24.1067 4.44987 24.2138 4.41183 24.3252 4.39592C24.4366 4.38001 24.55 4.38656 24.6588 4.41517C24.7677 4.44379 24.8697 4.49389 24.9588 4.56254C25.048 4.63118 25.1225 4.71698 25.178 4.81487C25.2335 4.91276 25.2688 5.02076 25.2819 5.13252C25.295 5.24428 25.2856 5.35753 25.2543 5.46561C25.223 5.57368 25.1703 5.67439 25.0995 5.7618C25.0286 5.84921 24.941 5.92155 24.8417 5.97457L6.25393 16.5123C6.1274 16.584 5.98447 16.6218 5.83903 16.6219Z" fill="#189AD3"/>
<path d="M24.4244 6.08495C24.3483 6.08483 24.2727 6.07442 24.1995 6.05403L20.3423 4.98586C20.1298 4.92355 19.9504 4.78017 19.8427 4.58669C19.7351 4.39321 19.7078 4.16516 19.7669 3.95176C19.8259 3.73837 19.9665 3.55676 20.1583 3.44615C20.3501 3.33554 20.5778 3.3048 20.792 3.36056L24.6492 4.42873C24.846 4.483 25.0164 4.6068 25.1288 4.77716C25.2413 4.94751 25.2881 5.15286 25.2606 5.35512C25.2332 5.55738 25.1333 5.74281 24.9795 5.87702C24.8257 6.01123 24.6285 6.08511 24.4244 6.08495Z" fill="#189AD3"/>
<path d="M23.3557 9.94207C23.2258 9.94218 23.0975 9.91224 22.981 9.85459C22.8645 9.79693 22.7629 9.71313 22.6841 9.60971C22.6054 9.50629 22.5516 9.38607 22.527 9.25843C22.5024 9.13079 22.5076 8.99919 22.5423 8.8739L23.6104 5.01614C23.6386 4.90791 23.688 4.80637 23.7558 4.71742C23.8236 4.62847 23.9084 4.55389 24.0052 4.49803C24.1021 4.44216 24.2091 4.40612 24.3201 4.392C24.431 4.37788 24.5436 4.38597 24.6514 4.4158C24.7592 4.44562 24.86 4.49659 24.9479 4.56573C25.0358 4.63486 25.109 4.7208 25.1634 4.81852C25.2178 4.91624 25.2522 5.0238 25.2646 5.13494C25.277 5.24608 25.2672 5.35858 25.2357 5.46589L24.1676 9.32309C24.1185 9.50082 24.0126 9.65759 23.866 9.76938C23.7193 9.88117 23.5401 9.94183 23.3557 9.94207Z" fill="#189AD3"/>
</svg>
