<svg width="32" height="32" viewBox="0 0 32 32" fill="none" xmlns="http://www.w3.org/2000/svg">
<path d="M10.3444 14.3438C11.1355 14.3438 11.9088 14.1092 12.5666 13.6696C13.2244 13.2301 13.7371 12.6054 14.0399 11.8745C14.3426 11.1436 14.4218 10.3393 14.2675 9.56339C14.1132 8.78747 13.7322 8.07474 13.1728 7.51533C12.6134 6.95592 11.9006 6.57495 11.1247 6.42061C10.3488 6.26627 9.54453 6.34548 8.81363 6.64823C8.08273 6.95098 7.45801 7.46367 7.01849 8.12147C6.57896 8.77927 6.34436 9.55263 6.34436 10.3438C6.34552 11.4043 6.76732 12.421 7.51722 13.1709C8.26711 13.9208 9.28385 14.3426 10.3444 14.3438ZM10.3444 9.01042C10.6081 9.01042 10.8659 9.08862 11.0851 9.23513C11.3044 9.38163 11.4753 9.58987 11.5762 9.83351C11.6771 10.0771 11.7035 10.3452 11.6521 10.6039C11.6006 10.8625 11.4736 11.1001 11.2872 11.2866C11.1007 11.473 10.8631 11.6 10.6045 11.6515C10.3458 11.7029 10.0778 11.6765 9.83412 11.5756C9.59048 11.4747 9.38225 11.3038 9.23574 11.0845C9.08923 10.8652 9.01103 10.6075 9.01103 10.3438C9.01127 9.9902 9.15182 9.6512 9.40182 9.4012C9.65181 9.15121 9.99081 9.01066 10.3444 9.01042ZM21.6569 17.6563C20.8657 17.6563 20.0924 17.8909 19.4346 18.3304C18.7768 18.7699 18.2641 19.3946 17.9614 20.1255C17.6586 20.8564 17.5794 21.6607 17.7337 22.4366C17.8881 23.2125 18.269 23.9253 18.8284 24.4847C19.3879 25.0441 20.1006 25.4251 20.8765 25.5794C21.6524 25.7337 22.4567 25.6545 23.1876 25.3518C23.9185 25.049 24.5432 24.5363 24.9827 23.8785C25.4223 23.2207 25.6569 22.4474 25.6569 21.6563C25.6557 20.5957 25.2339 19.579 24.484 18.8291C23.7341 18.0792 22.7174 17.6574 21.6569 17.6563ZM21.6569 22.9896C21.3932 22.9896 21.1354 22.9114 20.9161 22.7649C20.6968 22.6184 20.5259 22.4101 20.425 22.1665C20.3241 21.9229 20.2977 21.6548 20.3492 21.3961C20.4006 21.1375 20.5276 20.8999 20.7141 20.7134C20.9005 20.527 21.1381 20.4 21.3968 20.3485C21.6554 20.2971 21.9235 20.3235 22.1671 20.4244C22.4108 20.5253 22.619 20.6962 22.7655 20.9155C22.912 21.1348 22.9902 21.3925 22.9902 21.6563C22.99 22.0098 22.8494 22.3488 22.5994 22.5988C22.3494 22.8488 22.0104 22.9894 21.6569 22.9896ZM26.2766 5.72401C26.1528 5.60016 26.0059 5.50192 25.8441 5.4349C25.6824 5.36787 25.509 5.33337 25.3339 5.33337C25.1588 5.33337 24.9854 5.36787 24.8237 5.4349C24.6619 5.50192 24.515 5.60016 24.3912 5.72401L5.72454 24.3907C5.59946 24.5142 5.50005 24.6612 5.43202 24.8233C5.36399 24.9854 5.32868 25.1593 5.32813 25.3351C5.32758 25.5109 5.3618 25.685 5.42882 25.8475C5.49583 26.0101 5.59433 26.1577 5.71863 26.282C5.84293 26.4063 5.99058 26.5048 6.15309 26.5718C6.3156 26.6388 6.48975 26.673 6.66553 26.6724C6.84132 26.6719 7.01525 26.6366 7.17733 26.5685C7.33941 26.5005 7.48644 26.4011 7.60995 26.276L26.2766 7.60934C26.4004 7.48557 26.4987 7.33861 26.5657 7.17686C26.6327 7.01512 26.6672 6.84175 26.6672 6.66667C26.6672 6.49159 26.6327 6.31823 26.5657 6.15648C26.4987 5.99474 26.4004 5.84778 26.2766 5.72401Z" fill="#189AD3"/>
</svg>
