<svg width="32" height="32" viewBox="0 0 32 32" fill="none" xmlns="http://www.w3.org/2000/svg">
<path d="M27.6167 6H5.38222C2.96586 6 1 7.96698 1 10.3833V21.9979C1 24.4142 2.96586 26.3812 5.38222 26.3812H27.6167C30.033 26.3812 32 24.4142 32 21.9979V10.3833C31.9989 7.96698 30.033 6 27.6167 6ZM29.9918 21.9979C29.9918 23.3081 28.9269 24.373 27.6167 24.373H5.38222C4.07201 24.373 3.00712 23.3081 3.00712 21.9979V10.3833C3.00712 9.07313 4.07313 8.00824 5.38222 8.00824H27.6167C28.9269 8.00824 29.9918 9.07313 29.9918 10.3833V21.9979Z" fill="#189AD3"/>
<path d="M7.85601 17.4451C8.54883 17.4451 9.11047 16.8834 9.11047 16.1906C9.11047 15.4978 8.54883 14.9362 7.85601 14.9362C7.1632 14.9362 6.60156 15.4978 6.60156 16.1906C6.60156 16.8834 7.1632 17.4451 7.85601 17.4451Z" fill="#189AD3"/>
<path d="M25.1392 17.4451C25.832 17.4451 26.3937 16.8834 26.3937 16.1906C26.3937 15.4978 25.832 14.9362 25.1392 14.9362C24.4464 14.9362 23.8848 15.4978 23.8848 16.1906C23.8848 16.8834 24.4464 17.4451 25.1392 17.4451Z" fill="#189AD3"/>
<path d="M19.2461 19.2972H16.0046C16.2377 18.7486 16.3726 18.2022 16.4105 17.6592H17.3304C17.8846 17.6592 18.334 17.2098 18.334 16.6556C18.334 16.1014 17.8846 15.652 17.3304 15.652H16.0436C15.9879 15.5193 15.9299 15.39 15.8741 15.2651C15.7035 14.8871 15.5563 14.5604 15.5207 14.247C15.4749 13.859 15.7537 13.3929 16.1429 13.2078C16.4696 13.0517 16.8587 13.0439 17.2345 13.1822C17.6471 13.3338 17.9928 13.6449 18.1578 14.014C18.3819 14.518 18.9751 14.7466 19.4836 14.5191C19.9887 14.2928 20.2151 13.6995 19.9887 13.1933C19.6007 12.328 18.8491 11.6367 17.9259 11.2988C17.0349 10.9732 16.0949 11.0067 15.2776 11.3969C14.119 11.9489 13.382 13.2457 13.5258 14.4812C13.5771 14.9205 13.7143 15.2986 13.8614 15.6531H13.7555C13.2013 15.6531 12.752 16.1025 12.752 16.6567C12.752 17.2109 13.2013 17.6603 13.7555 17.6603H14.3822C14.303 18.2959 13.9986 18.976 13.4489 19.6897C13.2158 19.9919 13.1746 20.4022 13.3441 20.7445C13.5135 21.0869 13.8626 21.3054 14.245 21.3054H19.2461C19.8003 21.3054 20.2497 20.8561 20.2497 20.3019C20.2497 19.7477 19.8003 19.2972 19.2461 19.2972Z" fill="#189AD3"/>
</svg>
